<svg xmlns="http://www.w3.org/2000/svg" width="508" height="255" fill="none">
    <g clip-path="url(#a)">
        <g clip-path="url(#b)">
            <g clip-path="url(#c)">
                <path fill="#266DF0" stroke="#6B9FFF" stroke-miterlimit="10" stroke-width=".707"
                      d="M209.443 177.163c0-42.38-34.355-76.735-76.735-76.735s-76.735 34.355-76.735 76.735c0 42.379 34.355 76.735 76.735 76.735s76.735-34.356 76.735-76.735Z"/>
                <path fill="#266DF0" stroke="#6B9FFF" stroke-miterlimit="10" stroke-width=".707"
                      d="m199.175 24.232-49.653 18.072a8.941 8.941 0 0 0-5.344 11.462l18.072 49.652a8.942 8.942 0 0 0 11.461 5.345l49.653-18.072a8.943 8.943 0 0 0 5.344-11.462l-18.072-49.652a8.942 8.942 0 0 0-11.461-5.345ZM451.674 34.655a6.011 6.011 0 1 0 0-12.023 6.011 6.011 0 0 0 0 12.023ZM431.871 34.655a6.011 6.011 0 1 0 0-12.023 6.011 6.011 0 0 0 0 12.023ZM412.068 34.655a6.012 6.012 0 1 0 0-12.024 6.012 6.012 0 0 0 0 12.024Z"/>
                <path fill="#266DF0" stroke="#8FB7FF" stroke-linejoin="round" stroke-miterlimit="10" stroke-width=".707"
                      d="M387.412 179.871c.013-2.374 2.353-4.39 4.949-3.586l55.85 17.506c1.97.613 2.737 2.578 2.264 4.224l-2.059 13.423a4.98 4.98 0 0 1-3.12 3.853l-8.567 3.318-10.651 4.121a2.934 2.934 0 0 0-1.598 1.506l-7.237 15.872c-1.829 3.318-6.611 3.292-8.414-.038l-20.982-44.697a9.407 9.407 0 0 1-.882-4.338l.447-11.164Z"/>
                <path fill="#266DF0" stroke="#8FB7FF" stroke-linejoin="round" stroke-miterlimit="10" stroke-width=".707"
                      d="m425.029 209.103-7.058 12.759c-1.828 3.318-6.61 3.292-8.413-.038l-21.686-40.116c-1.624-2.999 1.228-6.444 4.488-5.423l55.851 17.506c3.146.983 3.21 5.41.09 6.495l-21.673 7.477a2.944 2.944 0 0 0-1.611 1.353l.012-.013Z"/>
                <path stroke="#8FB7FF" stroke-linejoin="round" stroke-miterlimit="10" stroke-width=".707"
                      d="m424.877 223.61 1.125-15.553M417.256 240.096l2.212-21.028M408.842 240.057l-.498-20.326"
                      opacity=".8"/>
                <path fill="#266DF0" stroke="#8FB7FF" stroke-miterlimit="10" stroke-width=".707"
                      d="m420.27 106.183-18.668 29.56a10.781 10.781 0 0 1-9.146 5.069H353.99a10.762 10.762 0 0 1-9.147-5.069l-18.475-29.56a10.778 10.778 0 0 1-.01-11.429l18.667-29.56a10.779 10.779 0 0 1 9.137-5.079h38.475c3.726 0 7.179 1.918 9.147 5.058l18.476 29.581a10.783 10.783 0 0 1 .01 11.429Z"/>
                <path fill="#266DF0" stroke="#8FB7FF" stroke-miterlimit="10" stroke-width=".707"
                      d="M394.627 71.09c.656-1.04 1.746-1.162 2.18-1.162.445 0 1.525.111 2.181 1.161l1.242 2v-.041l14.679 23.493c1.494 2.393 1.494 5.482 0 7.865l-6.895 10.974-9.218 14.598a2.388 2.388 0 0 1-2.069 1.151c-.414 0-1.434-.111-2.09-1.161l-15.922-25.492c-1.494-2.382-1.504-5.462-.04-7.864l15.952-25.523Z"
                      opacity=".8"/>
                <path fill="#266DF0" stroke="#8FB7FF" stroke-linejoin="round" stroke-width=".707"
                      d="M169.141 185.945c-.103-2.699.618-5.418 2.101-7.798l89.249-142.84a13.951 13.951 0 0 1 11.845-6.561h49.832a13.99 13.99 0 0 1 11.855 6.56l1.875 3.008.669 1.072 9.456 15.12 11.937 19.096a13.983 13.983 0 0 1 0 14.812L282.935 208.47l-12.319 19.714-.041.072-1.854 2.987a13.99 13.99 0 0 1-11.855 6.561h-49.842c-4.82 0-9.301-2.492-11.855-6.561l-12.865-20.59-11.062-17.716a13.715 13.715 0 0 1-2.101-6.993Z"/>
                <path fill="#266DF0" stroke="#8FB7FF" stroke-linejoin="round" stroke-miterlimit="10" stroke-width=".919"
                      d="M263.849 223.591c-.546 0-1.916-.154-2.791-1.545l-10.753-17.211-8.199-12.824-1.525-2.431a9.924 9.924 0 0 1-1.514-5.005 10.03 10.03 0 0 1 1.514-5.634l40.098-64.17 44.651-71.513c.876-1.4 2.256-1.555 2.802-1.555.546 0 1.926.155 2.801 1.555l.649 1.04 19.859 31.406c2.018 3.234 2.018 7.416 0 10.65l-84.77 135.62-.041.072c-.875 1.391-2.235 1.545-2.791 1.545h.01Z"
                      opacity=".8"/>
            </g>
        </g>
    </g>
    <defs>
        <clipPath id="a">
            <path fill="#fff" d="M0 0h508v254.605H0z"/>
        </clipPath>
        <clipPath id="b">
            <path fill="#fff" d="M12 0h484v254.605H12z"/>
        </clipPath>
        <clipPath id="c">
            <path fill="#fff" d="M12.125 0h483.75v254.605H12.125z"/>
        </clipPath>
    </defs>
</svg>